<?xml version="1.0" encoding="UTF-8" standalone="no"?>
<!-- Created with Inkscape (http://www.inkscape.org/) -->

<svg
   xmlns:dc="http://purl.org/dc/elements/1.1/"
   xmlns:cc="http://creativecommons.org/ns#"
   xmlns:rdf="http://www.w3.org/1999/02/22-rdf-syntax-ns#"
   xmlns:svg="http://www.w3.org/2000/svg"
   xmlns="http://www.w3.org/2000/svg"
   xmlns:sodipodi="http://sodipodi.sourceforge.net/DTD/sodipodi-0.dtd"
   xmlns:inkscape="http://www.inkscape.org/namespaces/inkscape"
   version="1.1"
   id="svg2"
   xml:space="preserve"
   width="49.146667"
   height="49.146667"
   viewBox="0 0 49.146667 49.146667"
   sodipodi:docname="alert_black.svg"
   inkscape:version="0.92.3 (2405546, 2018-03-11)"><metadata
     id="metadata8"><rdf:RDF><cc:Work
         rdf:about=""><dc:format>image/svg+xml</dc:format><dc:type
           rdf:resource="http://purl.org/dc/dcmitype/StillImage" /><dc:title></dc:title></cc:Work></rdf:RDF></metadata><defs
     id="defs6" /><sodipodi:namedview
     pagecolor="#ffffff"
     bordercolor="#666666"
     borderopacity="1"
     objecttolerance="10"
     gridtolerance="10"
     guidetolerance="10"
     inkscape:pageopacity="0"
     inkscape:pageshadow="2"
     inkscape:window-width="2493"
     inkscape:window-height="1385"
     id="namedview4"
     showgrid="false"
     inkscape:zoom="19.207813"
     inkscape:cx="15.800862"
     inkscape:cy="28.738306"
     inkscape:window-x="67"
     inkscape:window-y="27"
     inkscape:window-maximized="1"
     inkscape:current-layer="g10" /><g
     id="g10"
     inkscape:groupmode="layer"
     inkscape:label="ink_ext_XXXXXX"
     transform="matrix(1.3333333,0,0,-1.3333333,0,49.146667)"><g
       id="g12"
       transform="scale(0.1)"
       style="fill:#3c3d00;stroke:#3c3d00;fill-opacity:1;stroke-opacity:1"><path
         d="M 184.293,358.883 C 88.0352,358.883 9.71484,280.563 9.71484,184.305 9.71484,88.0391 88.0352,9.73047 184.293,9.73047 c 96.262,0 174.578,78.30863 174.578,174.57453 0,96.258 -78.316,174.578 -174.578,174.578 z m 0,-358.87909375 C 82.6758,0.00390625 0,82.6875 0,184.305 c 0,101.621 82.6758,184.293 184.293,184.293 101.621,0 184.309,-82.672 184.309,-184.293 C 368.602,82.6875 285.914,0.00390625 184.293,0.00390625"
         style="fill:#3c3d00;fill-opacity:1;fill-rule:nonzero;stroke:#3c3d00;stroke-opacity:1"
         id="path14"
         inkscape:connector-curvature="0" /><path
         d="m 175.855,143.215 c -1.066,7.297 -1.667,22.648 -2.128,41.187 -0.606,18.532 -0.907,40.27 -1.211,60.934 -0.301,20.512 -0.457,39.809 -0.457,53.176 h 24.921 c 0,-13.367 0,-32.664 -0.46,-53.176 -0.157,-10.332 -0.457,-20.816 -0.606,-31.305 -0.461,-21.129 -1.062,-39.965 -1.824,-54.398 -0.449,-7.305 -0.762,-12.766 -1.211,-16.418 z M 166.746,95.5 c 0,4.719 1.973,8.965 5.164,12.012 3.028,3.039 7.285,5.011 12,5.011 4.711,0 9.113,-1.972 12.309,-5.011 3.035,-3.047 5.019,-7.293 5.019,-12.012 0,-4.707 -1.984,-8.9531 -5.019,-12.0039 -3.196,-3.0352 -7.598,-5.0078 -12.309,-5.0078 -4.715,0 -8.972,1.9726 -12,5.0078 -3.191,3.0508 -5.164,7.2969 -5.164,12.0039"
         style="fill:#3c3d00;fill-opacity:1;fill-rule:nonzero;stroke:#3c3d00;stroke-opacity:1"
         id="path16"
         inkscape:connector-curvature="0" /></g></g></svg>