<?xml version="1.0" encoding="UTF-8" standalone="no"?>
<svg
   xmlns:dc="http://purl.org/dc/elements/1.1/"
   xmlns:cc="http://creativecommons.org/ns#"
   xmlns:rdf="http://www.w3.org/1999/02/22-rdf-syntax-ns#"
   xmlns:svg="http://www.w3.org/2000/svg"
   xmlns="http://www.w3.org/2000/svg"
   viewBox="0 0 106.66667 106.66667"
   height="106.66667"
   width="106.66667"
   xml:space="preserve"
   id="svg2"
   version="1.1"><metadata
     id="metadata8"><rdf:RDF><cc:Work
         rdf:about=""><dc:format>image/svg+xml</dc:format><dc:type
           rdf:resource="http://purl.org/dc/dcmitype/StillImage" /><dc:title></dc:title></cc:Work></rdf:RDF></metadata><defs
     id="defs6" /><g
     transform="matrix(1.3333333,0,0,-1.3333333,0,106.66667)"
     id="g10"><g
       transform="matrix(0.20935504,0,0,0.20935504,-43.594577,-43.893998)"
       id="g12"><path
         id="path14"
         style="fill:#231f20;fill-opacity:1;fill-rule:nonzero;stroke:none"
         d="m 401.813,478.43 -24.34,-10.231 3.699,-8.847 c -4.184,-3.684 -7.609,-8.239 -10.067,-13.391 l -9.625,1.227 -3.328,-26.219 9.621,-1.223 c 1.09,-5.601 3.274,-10.863 6.407,-15.473 l -5.817,-7.668 21.035,-15.96 5.868,7.714 c 2.863,-1.035 5.511,-1.679 8.164,-2.019 1.441,-0.188 2.914,-0.277 4.445,-0.277 1.273,0 2.594,0.058 3.98,0.187 l 3.75,-8.937 24.344,10.226 -3.711,8.848 c 4.192,3.679 7.617,8.23 10.078,13.383 l 9.629,-1.223 3.293,26.226 -9.597,1.219 c -1.086,5.594 -3.274,10.86 -6.399,15.469 l 5.813,7.648 -21.047,15.985 -5.867,-7.715 c -2.871,1.035 -5.508,1.684 -8.157,2.019 -1.445,0.188 -2.921,0.282 -4.453,0.282 -1.273,0 -2.59,-0.067 -3.965,-0.192 z m -5.348,-13.098 2.719,-6.477 7.3,0.676 c 1.059,0.098 2.071,0.149 3.047,0.149 1.094,0 2.149,-0.067 3.184,-0.2 1.953,-0.246 3.867,-0.73 6.035,-1.507 l 6.902,-2.489 4.258,5.606 5.129,-3.899 -4.101,-5.406 4.035,-5.941 c 2.382,-3.52 4.019,-7.477 4.851,-11.766 l 1.387,-7.105 6.863,-0.864 -0.801,-6.379 -6.863,0.875 -3.113,-6.523 c -1.887,-3.949 -4.465,-7.383 -7.656,-10.187 l -5.403,-4.75 2.625,-6.258 -5.906,-2.481 -2.727,6.481 -7.3,-0.676 c -1.063,-0.098 -2.078,-0.152 -3.055,-0.152 -1.098,0 -2.152,0.07 -3.184,0.195 -1.949,0.25 -3.867,0.734 -6.039,1.516 l -6.91,2.488 -4.258,-5.606 -5.105,3.879 4.105,5.418 -4.039,5.946 c -2.386,3.507 -4.015,7.468 -4.855,11.765 l -1.383,7.102 -6.875,0.867 0.809,6.379 6.867,-0.875 3.113,6.515 c 1.895,3.961 4.473,7.395 7.656,10.2 l 5.391,4.746 -2.621,6.254 5.918,2.484" /><path
         id="path16"
         style="fill:#231f20;fill-opacity:1;fill-rule:nonzero;stroke:none"
         d="m 408.531,447.715 c -11.125,0 -20.176,-9.055 -20.176,-20.172 0,-11.117 9.047,-20.172 20.168,-20.172 11.118,0 20.161,9.055 20.161,20.172 0,11.117 -9.043,20.172 -20.153,20.172 z m 0,-10 c 5.59,0 10.153,-4.567 10.153,-10.172 0,-5.605 -4.563,-10.172 -10.161,-10.172 -5.609,0 -10.168,4.567 -10.168,10.172 0,5.605 4.567,10.172 10.176,10.172" /><path
         id="path18"
         style="fill:#231f20;fill-opacity:1;fill-rule:nonzero;stroke:none"
         d="m 525.461,537.543 -31.352,-37.348 c -0.984,-1.179 -2.398,-1.789 -3.836,-1.789 -1.132,0 -2.265,0.387 -3.203,1.172 -2.121,1.774 -2.39,4.93 -0.617,7.043 l 31.352,37.348 c 1.765,2.117 4.922,2.394 7.039,0.617 2.109,-1.773 2.39,-4.93 0.617,-7.043 z m 59.102,-99.109 c 0.488,-2.719 -1.333,-5.313 -4.055,-5.793 l -48.02,-8.477 c -0.293,-0.055 -0.586,-0.078 -0.867,-0.078 -2.383,0 -4.492,1.707 -4.922,4.133 -0.476,2.719 1.336,5.312 4.055,5.789 l 48.016,8.476 c 2.707,0.496 5.312,-1.332 5.793,-4.05 z M 552.07,307.566 c -0.925,-1.597 -2.605,-2.5 -4.336,-2.5 -0.847,0 -1.711,0.215 -2.492,0.664 l -42.234,24.387 c -2.395,1.387 -3.211,4.446 -1.836,6.836 1.387,2.395 4.453,3.215 6.836,1.824 l 42.234,-24.375 c 2.395,-1.382 3.215,-4.441 1.828,-6.836 z m -96.457,-42.515 c 2.578,0.933 5.461,-0.403 6.407,-2.988 l 16.679,-45.833 c 0.949,-2.597 -0.386,-5.468 -2.984,-6.406 -0.559,-0.207 -1.145,-0.304 -1.711,-0.304 -2.039,0 -3.953,1.261 -4.695,3.293 l -16.68,45.832 c -0.949,2.593 0.391,5.457 2.984,6.406 z m -90.929,-6.406 -16.68,-45.832 c -0.738,-2.032 -2.656,-3.293 -4.699,-3.293 -0.567,0 -1.149,0.097 -1.707,0.304 -2.598,0.938 -3.938,3.809 -2.989,6.406 l 16.68,45.833 c 0.945,2.585 3.832,3.921 6.406,2.988 2.598,-0.949 3.934,-3.813 2.989,-6.406 z m -75.036,66.843 c 1.383,-2.39 0.563,-5.449 -1.832,-6.828 L 245.59,294.27 c -0.785,-0.454 -1.645,-0.665 -2.492,-0.665 -1.731,0 -3.41,0.899 -4.336,2.5 -1.383,2.391 -0.563,5.45 1.828,6.825 l 42.226,24.394 c 2.375,1.387 5.446,0.567 6.832,-1.836 z m -22.144,88.567 -48.016,8.457 c -2.718,0.476 -4.539,3.07 -4.054,5.789 0.472,2.715 3.05,4.535 5.793,4.054 l 48.015,-8.46 c 2.723,-0.477 4.535,-3.071 4.055,-5.79 -0.426,-2.421 -2.535,-4.128 -4.918,-4.128 -0.289,0 -0.582,0.023 -0.875,0.078 z m 53.43,92.547 c 1.777,-2.114 1.5,-5.27 -0.618,-7.039 -0.937,-0.79 -2.074,-1.172 -3.207,-1.172 -1.429,0 -2.847,0.601 -3.832,1.785 l -31.339,37.344 c -1.778,2.113 -1.5,5.269 0.617,7.043 2.125,1.769 5.277,1.496 7.039,-0.618 z m 84.691,30.128 v 48.75 c 0,2.762 2.234,5 5,5 2.766,0 5,-2.238 5,-5 v -48.75 c 0,-2.765 -2.234,-5 -5,-5 -2.766,0 -5,2.235 -5,5 z m 49.641,-156.339 c -8.801,-8.821 -15.137,-19.461 -18.645,-31.067 h -55.844 c -3.511,11.606 -9.843,22.239 -18.648,31.067 -12.359,12.39 -19.164,28.839 -19.164,46.312 0,36.242 29.484,65.731 65.73,65.731 36.246,0 65.731,-29.489 65.731,-65.731 0,-17.48 -6.809,-33.926 -19.16,-46.312 z m -46.571,-84.368 c -6.277,0 -11.808,2.59 -14.5,6.235 h 29.008 c -2.695,-3.645 -8.223,-6.235 -14.508,-6.235 z m 24.723,19.622 c 0,-1.868 -1.523,-3.387 -3.391,-3.387 h -42.66 c -1.871,0 -3.39,1.519 -3.39,3.387 v 5.3 h 49.441 z m 0.168,15.3 h -49.777 c -0.121,2.825 -0.403,5.618 -0.836,8.379 h 51.453 c -0.442,-2.761 -0.715,-5.554 -0.84,-8.379 z m -24.891,171.489 c -41.757,0 -75.73,-33.973 -75.73,-75.731 0,-20.14 7.84,-39.098 22.086,-53.375 12.199,-12.234 18.926,-28.484 18.926,-45.769 v -11.914 c 0,-5.809 3.773,-10.645 8.968,-12.5 2.289,-9.727 12.946,-17.122 25.75,-17.122 12.809,0 23.461,7.395 25.758,17.122 5.195,1.855 8.965,6.691 8.965,12.5 v 11.914 c 0,17.285 6.719,33.546 18.926,45.769 14.238,14.277 22.082,33.231 22.082,53.375 0,41.758 -33.965,75.731 -75.731,75.731" /></g></g></svg>