<?xml version="1.0" encoding="UTF-8" ?>
<svg xmlns="http://www.w3.org/2000/svg" xmlns:xlink="http://www.w3.org/1999/xlink" height="600" width="520">
  <g id="background">
    <polygon points="260,600 0.2,450 0.2,150 260,0 519.8,150 519.8,450" style="fill:#C04384;" />
    <polygon points="260,585 13.2,442.5 13.2,157.5 260,15 506.8,157.5 506.8 442.5" style="fill:white;" />
    <polygon points="260,30 26.2,165 26.2,300 493.8,300 493.8,165" style="fill:#C04384;" />
  </g>
  <g id="package: INBOmd">
    <path style="fill:#3C3D00"  d="M 48.44 333.37 L 48.44 422.03 L 32.70 422.03 L 32.70 333.37 M 81.67 422.03 Z L 65.93 422.03 L 65.93 333.37 L 81.67 333.37 L 118.53 392.36 L 118.53 333.37 L 134.28 333.37 L 134.28 422.03 L 118.53 422.03 L 81.67 363.10 M 167.51 383.82 Z L 167.51 408.64 L 172.01 408.64 L 174.77 408.63 L 177.36 408.56 L 179.78 408.45 L 182.02 408.30 L 184.11 408.08 L 186.03 407.82 L 187.76 407.51 L 189.35 407.15 L 190.76 406.75 L 191.99 406.29 L 193.09 405.75 L 194.08 405.12 L 194.95 404.38 L 195.70 403.55 L 196.33 402.62 L 196.86 401.59 L 197.26 400.46 L 197.55 399.23 L 197.72 397.89 L 197.78 396.47 L 197.72 395.03 L 197.55 393.70 L 197.28 392.47 L 196.89 391.32 L 196.39 390.28 L 195.77 389.33 L 195.04 388.47 L 194.21 387.72 L 193.26 387.07 L 192.19 386.51 L 191.02 386.00 L 189.70 385.54 L 188.27 385.13 L 186.70 384.79 L 185.00 384.49 L 183.17 384.25 L 181.22 384.06 L 179.13 383.92 L 176.91 383.84 L 174.57 383.82 M 167.51 346.82 Z L 167.51 368.69 L 168.51 368.69 L 171.10 368.66 L 173.52 368.62 L 175.74 368.54 L 177.79 368.44 L 179.65 368.29 L 181.34 368.13 L 182.84 367.92 L 184.17 367.69 L 185.31 367.43 L 186.27 367.14 L 187.41 366.66 L 188.40 366.07 L 189.30 365.39 L 190.06 364.59 L 190.71 363.71 L 191.25 362.71 L 191.67 361.62 L 191.96 360.42 L 192.14 359.12 L 192.19 357.72 L 192.14 356.32 L 191.96 355.02 L 191.66 353.82 L 191.23 352.72 L 190.68 351.73 L 190.02 350.84 L 189.23 350.05 L 188.33 349.37 L 187.29 348.79 L 186.14 348.30 L 185.19 348.02 L 184.05 347.77 L 182.76 347.54 L 181.30 347.35 L 179.67 347.19 L 177.87 347.06 L 175.90 346.96 L 173.76 346.88 L 171.46 346.83 L 168.99 346.82 M 151.77 422.03 Z L 151.77 333.37 L 174.91 333.37 L 178.03 333.41 L 180.99 333.54 L 183.78 333.76 L 186.42 334.06 L 188.89 334.46 L 191.20 334.94 L 193.34 335.51 L 195.32 336.16 L 197.14 336.91 L 198.79 337.74 L 200.67 338.94 L 202.35 340.30 L 203.83 341.81 L 205.12 343.47 L 206.21 345.28 L 207.09 347.24 L 207.79 349.35 L 208.28 351.60 L 208.58 354.01 L 208.67 356.58 L 208.60 359.13 L 208.36 361.54 L 207.97 363.80 L 207.41 365.91 L 206.69 367.86 L 205.83 369.66 L 204.78 371.31 L 203.60 372.80 L 202.25 374.15 L 200.74 375.35 L 202.10 375.93 L 203.39 376.57 L 204.60 377.24 L 205.74 377.96 L 206.79 378.72 L 207.78 379.53 L 208.69 380.39 L 209.53 381.29 L 210.28 382.23 L 210.96 383.22 L 211.58 384.26 L 212.13 385.36 L 212.62 386.52 L 213.05 387.75 L 213.41 389.03 L 213.70 390.38 L 213.93 391.79 L 214.11 393.26 L 214.21 394.80 L 214.26 396.40 L 214.19 398.59 L 214.01 400.66 L 213.71 402.62 L 213.29 404.47 L 212.77 406.20 L 212.13 407.82 L 211.36 409.33 L 210.49 410.72 L 209.50 411.98 L 208.41 413.15 L 207.22 414.22 L 205.95 415.20 L 204.62 416.12 L 203.20 416.96 L 201.71 417.72 L 200.16 418.41 L 198.53 419.02 L 196.82 419.56 L 195.05 420.02 L 193.20 420.42 L 191.27 420.72 L 189.26 421.00 L 187.15 421.23 L 184.95 421.45 L 182.66 421.63 L 180.29 421.77 L 177.81 421.88 L 175.25 421.96 L 172.61 422.01 L 169.86 422.03 M 245.81 355.03 Z L 244.34 356.70 L 243.03 358.48 L 241.87 360.39 L 240.86 362.41 L 240.01 364.55 L 239.31 366.80 L 238.78 369.17 L 238.38 371.65 L 238.15 374.25 L 238.07 376.96 L 238.15 379.67 L 238.36 382.30 L 238.71 384.81 L 239.20 387.23 L 239.84 389.54 L 240.62 391.75 L 241.53 393.86 L 242.60 395.86 L 243.80 397.76 L 245.13 399.56 L 246.61 401.22 L 248.19 402.70 L 249.89 404.01 L 251.70 405.15 L 253.63 406.10 L 255.67 406.88 L 257.82 407.49 L 260.10 407.91 L 262.49 408.16 L 264.98 408.24 L 267.48 408.15 L 269.85 407.90 L 272.11 407.49 L 274.24 406.92 L 276.25 406.17 L 278.14 405.26 L 279.91 404.18 L 281.56 402.94 L 283.08 401.54 L 284.49 399.97 L 285.76 398.25 L 286.92 396.42 L 287.93 394.49 L 288.80 392.44 L 289.55 390.28 L 290.17 388.00 L 290.64 385.62 L 290.99 383.10 L 291.20 380.49 L 291.28 377.77 L 291.19 375.02 L 290.93 372.40 L 290.53 369.87 L 289.95 367.47 L 289.22 365.19 L 288.32 363.01 L 287.27 360.95 L 286.06 359.00 L 284.68 357.16 L 283.14 355.43 L 281.50 353.84 L 279.81 352.43 L 278.06 351.17 L 276.26 350.10 L 274.40 349.18 L 272.49 348.43 L 270.53 347.84 L 268.51 347.43 L 266.44 347.17 L 264.31 347.09 L 262.19 347.17 L 260.12 347.41 L 258.13 347.81 L 256.19 348.36 L 254.30 349.08 L 252.49 349.95 L 250.73 350.98 L 249.02 352.17 L 247.39 353.52 M 307.02 377.63 Z L 306.91 381.48 L 306.55 385.20 L 305.94 388.80 L 305.11 392.25 L 304.03 395.59 L 302.72 398.80 L 301.16 401.87 L 299.36 404.82 L 297.32 407.63 L 295.05 410.32 L 292.59 412.81 L 289.99 415.04 L 287.25 417.01 L 284.38 418.71 L 281.38 420.15 L 278.24 421.31 L 274.96 422.23 L 271.55 422.87 L 267.99 423.25 L 264.31 423.38 L 260.64 423.24 L 257.11 422.85 L 253.72 422.20 L 250.48 421.28 L 247.38 420.09 L 244.42 418.66 L 241.59 416.95 L 238.91 414.98 L 236.37 412.75 L 233.97 410.26 L 231.76 407.57 L 229.79 404.75 L 228.04 401.82 L 226.52 398.74 L 225.24 395.54 L 224.19 392.22 L 223.38 388.77 L 222.80 385.18 L 222.45 381.47 L 222.33 377.63 L 222.45 373.80 L 222.81 370.09 L 223.42 366.51 L 224.26 363.06 L 225.35 359.74 L 226.67 356.54 L 228.24 353.48 L 230.04 350.55 L 232.08 347.74 L 234.37 345.07 L 236.85 342.60 L 239.46 340.38 L 242.20 338.42 L 245.08 336.72 L 248.08 335.29 L 251.22 334.11 L 254.50 333.20 L 257.90 332.54 L 261.45 332.15 L 265.11 332.02 L 268.80 332.15 L 272.33 332.54 L 275.73 333.20 L 278.98 334.11 L 282.09 335.29 L 285.05 336.72 L 287.86 338.42 L 290.54 340.38 L 293.07 342.60 L 295.45 345.07 L 297.65 347.74 L 299.62 350.55 L 301.36 353.48 L 302.86 356.54 L 304.13 359.74 L 305.17 363.06 L 305.99 366.51 L 306.56 370.09 L 306.91 373.80 M 368.71 359.07 Z L 370.62 357.51 L 372.55 356.11 L 374.50 354.87 L 376.49 353.81 L 378.48 352.91 L 380.50 352.17 L 382.55 351.60 L 384.61 351.18 L 386.71 350.94 L 388.82 350.86 L 390.90 350.92 L 392.90 351.11 L 394.81 351.42 L 396.62 351.86 L 398.36 352.42 L 400.01 353.11 L 401.57 353.92 L 403.04 354.86 L 404.41 355.93 L 405.70 357.12 L 406.89 358.43 L 407.96 359.86 L 408.90 361.41 L 409.72 363.09 L 410.40 364.89 L 410.96 366.80 L 411.40 368.84 L 411.71 371.00 L 411.90 373.28 L 411.96 375.68 L 411.96 422.03 L 396.22 422.03 L 396.22 379.92 L 396.18 378.53 L 396.08 377.22 L 395.92 375.97 L 395.68 374.82 L 395.38 373.73 L 395.01 372.72 L 394.57 371.78 L 394.07 370.92 L 393.49 370.13 L 392.86 369.43 L 392.17 368.79 L 391.43 368.21 L 390.66 367.70 L 389.84 367.26 L 388.98 366.88 L 388.07 366.58 L 387.13 366.33 L 386.14 366.15 L 385.12 366.04 L 384.04 366.00 L 382.94 366.03 L 381.82 366.14 L 380.70 366.31 L 379.57 366.57 L 378.43 366.88 L 377.28 367.27 L 376.13 367.74 L 374.96 368.27 L 373.80 368.88 L 372.61 369.56 L 372.70 370.19 L 372.79 370.79 L 372.85 371.40 L 372.91 371.99 L 372.97 372.56 L 373.01 373.14 L 373.04 373.69 L 373.07 374.22 L 373.08 374.76 L 373.08 422.03 L 357.34 422.03 L 357.34 379.92 L 357.31 378.52 L 357.21 377.20 L 357.05 375.94 L 356.82 374.77 L 356.53 373.67 L 356.18 372.67 L 355.76 371.72 L 355.27 370.85 L 354.73 370.06 L 354.11 369.36 L 353.45 368.72 L 352.74 368.15 L 351.99 367.64 L 351.20 367.21 L 350.38 366.84 L 349.51 366.53 L 348.60 366.30 L 347.65 366.13 L 346.66 366.03 L 345.63 366.00 L 344.58 366.03 L 343.50 366.15 L 342.40 366.35 L 341.29 366.62 L 340.15 366.98 L 339.01 367.42 L 337.83 367.93 L 336.64 368.53 L 335.43 369.21 L 334.20 369.96 L 334.20 422.03 L 318.46 422.03 L 318.46 352.21 L 331.78 352.21 L 333.19 357.12 L 334.95 355.93 L 336.73 354.86 L 338.56 353.92 L 340.43 353.11 L 342.33 352.42 L 344.26 351.86 L 346.23 351.42 L 348.23 351.11 L 350.29 350.92 L 352.36 350.86 L 354.41 350.94 L 356.37 351.18 L 358.25 351.60 L 360.02 352.17 L 361.70 352.91 L 363.29 353.81 L 364.78 354.87 L 366.18 356.11 L 367.49 357.51 M 460.39 365.52 Z L 458.58 365.58 L 456.84 365.74 L 455.18 366.02 L 453.60 366.41 L 452.08 366.90 L 450.66 367.51 L 449.32 368.23 L 448.04 369.06 L 446.85 369.99 L 445.73 371.04 L 444.71 372.18 L 443.80 373.41 L 442.99 374.71 L 442.29 376.10 L 441.69 377.57 L 441.21 379.11 L 440.84 380.74 L 440.57 382.44 L 440.40 384.24 L 440.35 386.11 L 440.39 387.97 L 440.53 389.77 L 440.76 391.51 L 441.08 393.18 L 441.48 394.80 L 441.97 396.34 L 442.56 397.84 L 443.24 399.26 L 444.00 400.62 L 444.85 401.92 L 445.80 403.12 L 446.78 404.19 L 447.85 405.13 L 448.97 405.96 L 450.16 406.66 L 451.40 407.23 L 452.71 407.67 L 454.09 407.98 L 455.53 408.17 L 457.03 408.24 L 458.55 408.19 L 460.07 408.06 L 461.56 407.85 L 463.04 407.54 L 464.50 407.16 L 465.94 406.69 L 467.38 406.13 L 468.79 405.48 L 470.18 404.75 L 471.56 403.93 L 471.56 367.00 L 470.39 366.72 L 469.25 366.47 L 468.11 366.24 L 466.96 366.05 L 465.84 365.89 L 464.73 365.76 L 463.63 365.66 L 462.55 365.58 L 461.47 365.54 M 487.30 422.03 Z L 475.39 422.03 L 472.57 416.78 L 470.80 418.04 L 469.00 419.15 L 467.19 420.15 L 465.34 421.00 L 463.48 421.73 L 461.58 422.32 L 459.68 422.78 L 457.75 423.11 L 455.78 423.31 L 453.80 423.38 L 451.02 423.27 L 448.36 422.98 L 445.84 422.50 L 443.44 421.83 L 441.18 420.95 L 439.05 419.89 L 437.04 418.62 L 435.17 417.18 L 433.42 415.53 L 431.80 413.69 L 430.33 411.70 L 429.02 409.64 L 427.87 407.49 L 426.86 405.25 L 426.01 402.93 L 425.31 400.51 L 424.76 398.01 L 424.38 395.44 L 424.15 392.77 L 424.07 390.01 L 424.18 386.28 L 424.48 382.73 L 424.99 379.36 L 425.70 376.18 L 426.62 373.17 L 427.76 370.36 L 429.08 367.71 L 430.62 365.26 L 432.35 362.98 L 434.29 360.88 L 436.41 358.98 L 438.64 357.27 L 441.02 355.77 L 443.52 354.47 L 446.15 353.36 L 448.91 352.46 L 451.80 351.76 L 454.83 351.26 L 457.98 350.96 L 461.27 350.86 L 462.28 350.86 L 463.27 350.88 L 464.29 350.92 L 465.30 350.96 L 467.37 351.10 L 468.41 351.18 L 469.45 351.29 L 470.51 351.40 L 471.56 351.53 L 471.56 325.97 L 484.88 324.62 L 487.30 324.62"/>
  </g>
<svg viewBox="0 0 208 128" x="130.0" y="-100.0" width="50.0%">
<path d="M193 128H15a15 15 0 0 1-15-15V15A15 15 0 0 1 15 0h178a15 15 0 0 1 15 15v98a15 15 0 0 1-15 15zM50 98V59l20 25 20-25v39h20V30H90L70 55 50 30H30v68zm134-34h-20V30h-20v34h-20l30 35z" style="fill:white"/>
</svg>
</svg>
